<svg width="48" height="48" viewBox="0 0 48 48" fill="none" xmlns="http://www.w3.org/2000/svg">
<mask id="path-1-outside-1_263_1767" maskUnits="userSpaceOnUse" x="6" y="16" width="14" height="18" fill="black">
<rect fill="white" x="6" y="16" width="14" height="18"/>
<path d="M19.4961 28.0547L19.1445 33H6.14844V32.168C6.33594 32.1523 6.60547 32.125 6.95703 32.0859C7.31641 32.0469 7.56641 31.9961 7.70703 31.9336C7.94141 31.832 8.10938 31.6836 8.21094 31.4883C8.32031 31.293 8.375 31.043 8.375 30.7383V18.832C8.375 18.5664 8.32812 18.332 8.23438 18.1289C8.14844 17.9258 7.97266 17.7617 7.70703 17.6367C7.52734 17.543 7.27344 17.4531 6.94531 17.3672C6.625 17.2734 6.35938 17.2188 6.14844 17.2031V16.3711H13.168V17.2031C12.9492 17.2109 12.6641 17.25 12.3125 17.3203C11.9688 17.3906 11.7188 17.4531 11.5625 17.5078C11.2969 17.6016 11.1133 17.7617 11.0117 17.9883C10.918 18.2148 10.8711 18.457 10.8711 18.7148V29.8828C10.8711 30.3984 10.8945 30.8008 10.9414 31.0898C10.9961 31.3711 11.1172 31.5898 11.3047 31.7461C11.4844 31.8867 11.75 31.9805 12.1016 32.0273C12.4609 32.0664 12.9609 32.0859 13.6016 32.0859C13.8906 32.0859 14.1914 32.0781 14.5039 32.0625C14.8164 32.0469 15.1133 32.0156 15.3945 31.9688C15.668 31.9219 15.918 31.8594 16.1445 31.7812C16.3789 31.6953 16.5508 31.5898 16.6602 31.4648C16.9805 31.1055 17.3516 30.5625 17.7734 29.8359C18.2031 29.1016 18.5 28.5078 18.6641 28.0547H19.4961Z"/>
</mask>
<path d="M19.4961 28.0547L19.1445 33H6.14844V32.168C6.33594 32.1523 6.60547 32.125 6.95703 32.0859C7.31641 32.0469 7.56641 31.9961 7.70703 31.9336C7.94141 31.832 8.10938 31.6836 8.21094 31.4883C8.32031 31.293 8.375 31.043 8.375 30.7383V18.832C8.375 18.5664 8.32812 18.332 8.23438 18.1289C8.14844 17.9258 7.97266 17.7617 7.70703 17.6367C7.52734 17.543 7.27344 17.4531 6.94531 17.3672C6.625 17.2734 6.35938 17.2188 6.14844 17.2031V16.3711H13.168V17.2031C12.9492 17.2109 12.6641 17.25 12.3125 17.3203C11.9688 17.3906 11.7188 17.4531 11.5625 17.5078C11.2969 17.6016 11.1133 17.7617 11.0117 17.9883C10.918 18.2148 10.8711 18.457 10.8711 18.7148V29.8828C10.8711 30.3984 10.8945 30.8008 10.9414 31.0898C10.9961 31.3711 11.1172 31.5898 11.3047 31.7461C11.4844 31.8867 11.75 31.9805 12.1016 32.0273C12.4609 32.0664 12.9609 32.0859 13.6016 32.0859C13.8906 32.0859 14.1914 32.0781 14.5039 32.0625C14.8164 32.0469 15.1133 32.0156 15.3945 31.9688C15.668 31.9219 15.918 31.8594 16.1445 31.7812C16.3789 31.6953 16.5508 31.5898 16.6602 31.4648C16.9805 31.1055 17.3516 30.5625 17.7734 29.8359C18.2031 29.1016 18.5 28.5078 18.6641 28.0547H19.4961Z" fill="white"/>
<path d="M19.4961 28.0547L19.5958 28.0618L19.6035 27.9547H19.4961V28.0547ZM19.1445 33V33.1H19.2377L19.2443 33.0071L19.1445 33ZM6.14844 33H6.04844V33.1H6.14844V33ZM6.14844 32.168L6.14013 32.0683L6.04844 32.076V32.168H6.14844ZM6.95703 32.0859L6.94623 31.9865L6.94599 31.9865L6.95703 32.0859ZM7.70703 31.9336L7.66727 31.8418L7.66642 31.8422L7.70703 31.9336ZM8.21094 31.4883L8.12365 31.4394L8.12222 31.4421L8.21094 31.4883ZM8.23438 18.1289L8.14223 18.1679L8.14358 18.1708L8.23438 18.1289ZM7.70703 17.6367L7.66074 17.7255L7.66445 17.7272L7.70703 17.6367ZM6.94531 17.3672L6.91721 17.4632L6.91998 17.4639L6.94531 17.3672ZM6.14844 17.2031H6.04844V17.296L6.14105 17.3029L6.14844 17.2031ZM6.14844 16.3711V16.2711H6.04844V16.3711H6.14844ZM13.168 16.3711H13.268V16.2711H13.168V16.3711ZM13.168 17.2031L13.1715 17.3031L13.268 17.2996V17.2031H13.168ZM12.3125 17.3203L12.2929 17.2223L12.2925 17.2223L12.3125 17.3203ZM11.5625 17.5078L11.5295 17.4134L11.5292 17.4135L11.5625 17.5078ZM11.0117 17.9883L10.9204 17.9474L10.9193 17.95L11.0117 17.9883ZM10.9414 31.0898L10.8426 31.1059L10.8432 31.1089L10.9414 31.0898ZM11.3047 31.7461L11.2406 31.823L11.2431 31.8248L11.3047 31.7461ZM12.1016 32.0273L12.0883 32.1265L12.0908 32.1268L12.1016 32.0273ZM15.3945 31.9688L15.411 32.0674L15.4114 32.0673L15.3945 31.9688ZM16.1445 31.7812L16.1771 31.8758L16.179 31.8751L16.1445 31.7812ZM16.6602 31.4648L16.5855 31.3983L16.5849 31.399L16.6602 31.4648ZM17.7734 29.8359L17.6871 29.7854L17.687 29.7857L17.7734 29.8359ZM18.6641 28.0547V27.9547H18.5939L18.57 28.0206L18.6641 28.0547ZM19.4961 28.0547L19.3963 28.0476L19.0448 32.9929L19.1445 33L19.2443 33.0071L19.5958 28.0618L19.4961 28.0547ZM19.1445 33V32.9H6.14844V33V33.1H19.1445V33ZM6.14844 33H6.24844V32.168H6.14844H6.04844V33H6.14844ZM6.14844 32.168L6.15674 32.2676C6.34563 32.2519 6.61624 32.2244 6.96807 32.1853L6.95703 32.0859L6.94599 31.9865C6.59469 32.0256 6.32625 32.0528 6.14013 32.0683L6.14844 32.168ZM6.95703 32.0859L6.96784 32.1854C7.32738 32.1463 7.59137 32.0944 7.74765 32.025L7.70703 31.9336L7.66642 31.8422C7.54144 31.8978 7.30543 31.9475 6.94623 31.9865L6.95703 32.0859ZM7.70703 31.9336L7.74679 32.0253C7.9987 31.9162 8.18584 31.7533 8.29966 31.5344L8.21094 31.4883L8.12222 31.4421C8.03291 31.6139 7.88412 31.7479 7.66727 31.8418L7.70703 31.9336ZM8.21094 31.4883L8.29819 31.5371C8.4184 31.3225 8.475 31.0542 8.475 30.7383H8.375H8.275C8.275 31.0318 8.22222 31.2635 8.12369 31.4394L8.21094 31.4883ZM8.375 30.7383H8.475V18.832H8.375H8.275V30.7383H8.375ZM8.375 18.832H8.475C8.475 18.5546 8.42601 18.3055 8.32517 18.087L8.23438 18.1289L8.14358 18.1708C8.23024 18.3586 8.275 18.5782 8.275 18.832H8.375ZM8.23438 18.1289L8.32647 18.0899C8.22813 17.8575 8.03002 17.6782 7.74961 17.5462L7.70703 17.6367L7.66445 17.7272C7.91529 17.8452 8.06874 17.9941 8.14228 18.1679L8.23438 18.1289ZM7.70703 17.6367L7.75329 17.5481C7.564 17.4493 7.30187 17.3572 6.97065 17.2705L6.94531 17.3672L6.91998 17.4639C7.245 17.5491 7.49069 17.6366 7.66077 17.7254L7.70703 17.6367ZM6.94531 17.3672L6.9734 17.2712C6.64973 17.1765 6.37659 17.1198 6.15582 17.1034L6.14844 17.2031L6.14105 17.3029C6.34216 17.3177 6.60027 17.3704 6.91722 17.4632L6.94531 17.3672ZM6.14844 17.2031H6.24844V16.3711H6.14844H6.04844V17.2031H6.14844ZM6.14844 16.3711V16.4711H13.168V16.3711V16.2711H6.14844V16.3711ZM13.168 16.3711H13.068V17.2031H13.168H13.268V16.3711H13.168ZM13.168 17.2031L13.1644 17.1032C12.938 17.1113 12.6469 17.1515 12.2929 17.2223L12.3125 17.3203L12.3321 17.4184C12.6813 17.3485 12.9605 17.3106 13.1715 17.3031L13.168 17.2031ZM12.3125 17.3203L12.2925 17.2223C11.948 17.2928 11.6925 17.3564 11.5295 17.4134L11.5625 17.5078L11.5955 17.6022C11.745 17.5499 11.9895 17.4885 12.3325 17.4183L12.3125 17.3203ZM11.5625 17.5078L11.5292 17.4135C11.2416 17.515 11.0348 17.6924 10.9205 17.9474L11.0117 17.9883L11.103 18.0292C11.1918 17.8311 11.3522 17.6881 11.5958 17.6021L11.5625 17.5078ZM11.0117 17.9883L10.9193 17.95C10.8203 18.1894 10.7711 18.4446 10.7711 18.7148H10.8711H10.9711C10.9711 18.4695 11.0156 18.2403 11.1041 18.0265L11.0117 17.9883ZM10.8711 18.7148H10.7711V29.8828H10.8711H10.9711V18.7148H10.8711ZM10.8711 29.8828H10.7711C10.7711 30.4004 10.7946 30.809 10.8427 31.1059L10.9414 31.0898L11.0401 31.0738C10.9945 30.7926 10.9711 30.3965 10.9711 29.8828H10.8711ZM10.9414 31.0898L10.8432 31.1089C10.9015 31.4087 11.0325 31.6494 11.2407 31.8229L11.3047 31.7461L11.3687 31.6693C11.2019 31.5302 11.0907 31.3335 11.0396 31.0708L10.9414 31.0898ZM11.3047 31.7461L11.2431 31.8248C11.4425 31.9809 11.7281 32.0784 12.0883 32.1265L12.1016 32.0273L12.1148 31.9282C11.7719 31.8825 11.5262 31.7925 11.3663 31.6673L11.3047 31.7461ZM12.1016 32.0273L12.0908 32.1268C12.4554 32.1664 12.9596 32.1859 13.6016 32.1859V32.0859V31.9859C12.9623 31.9859 12.4664 31.9664 12.1124 31.9279L12.1016 32.0273ZM13.6016 32.0859V32.1859C13.8924 32.1859 14.1949 32.1781 14.5089 32.1624L14.5039 32.0625L14.4989 31.9626C14.1879 31.9782 13.8888 31.9859 13.6016 31.9859V32.0859ZM14.5039 32.0625L14.5089 32.1624C14.8249 32.1466 15.1256 32.115 15.411 32.0674L15.3945 31.9688L15.3781 31.8701C15.101 31.9163 14.8079 31.9472 14.4989 31.9626L14.5039 32.0625ZM15.3945 31.9688L15.4114 32.0673C15.6894 32.0197 15.9447 31.9559 16.1771 31.8758L16.1445 31.7812L16.1119 31.6867C15.8912 31.7628 15.6465 31.8241 15.3776 31.8702L15.3945 31.9688ZM16.1445 31.7812L16.179 31.8751C16.4218 31.7861 16.6108 31.6731 16.7354 31.5307L16.6602 31.4648L16.5849 31.399C16.4907 31.5066 16.336 31.6045 16.1101 31.6874L16.1445 31.7812ZM16.6602 31.4648L16.7348 31.5314C17.0617 31.1646 17.4368 30.6149 17.8599 29.8862L17.7734 29.8359L17.687 29.7857C17.2664 30.5101 16.8992 31.0463 16.5855 31.3983L16.6602 31.4648ZM17.7734 29.8359L17.8597 29.8864C18.2906 29.1501 18.591 28.5503 18.7581 28.0887L18.6641 28.0547L18.57 28.0206C18.409 28.4653 18.1157 29.053 17.6871 29.7854L17.7734 29.8359ZM18.6641 28.0547V28.1547H19.4961V28.0547V27.9547H18.6641V28.0547Z" fill="black" mask="url(#path-1-outside-1_263_1767)"/>
<mask id="path-3-outside-2_263_1767" maskUnits="userSpaceOnUse" x="21" y="16" width="18" height="18" fill="black">
<rect fill="white" x="21" y="16" width="18" height="18"/>
<path d="M38.3633 33H31.4609V32.168C31.6484 32.1523 31.918 32.1289 32.2695 32.0977C32.6289 32.0664 32.875 32.0195 33.0078 31.957C33.2422 31.8633 33.4141 31.7227 33.5234 31.5352C33.6328 31.3398 33.6875 31.0898 33.6875 30.7852V24.8672H25.8711V30.6562C25.8711 30.9297 25.9141 31.1602 26 31.3477C26.0938 31.5352 26.2734 31.6992 26.5391 31.8398C26.6719 31.9102 26.9062 31.9805 27.2422 32.0508C27.5859 32.1211 27.8555 32.1602 28.0508 32.168V33H21.1484V32.168C21.3359 32.1523 21.6055 32.1289 21.957 32.0977C22.3164 32.0664 22.5625 32.0195 22.6953 31.957C22.9297 31.8633 23.1016 31.7227 23.2109 31.5352C23.3203 31.3398 23.375 31.0898 23.375 30.7852V18.7852C23.375 18.5352 23.3242 18.3086 23.2227 18.1055C23.1211 17.8945 22.9453 17.7305 22.6953 17.6133C22.4844 17.5117 22.2266 17.4219 21.9219 17.3438C21.625 17.2656 21.3672 17.2188 21.1484 17.2031V16.3711H28.0508V17.2031C27.832 17.2109 27.5625 17.2461 27.2422 17.3086C26.9297 17.3711 26.6953 17.4297 26.5391 17.4844C26.2734 17.5781 26.0938 17.7344 26 17.9531C25.9141 18.1719 25.8711 18.4102 25.8711 18.668V23.8242H33.6875V18.7852C33.6875 18.5352 33.6367 18.3086 33.5352 18.1055C33.4336 17.8945 33.2578 17.7305 33.0078 17.6133C32.7969 17.5117 32.5391 17.4219 32.2344 17.3438C31.9375 17.2656 31.6797 17.2188 31.4609 17.2031V16.3711H38.3633V17.2031C38.1445 17.2109 37.875 17.2461 37.5547 17.3086C37.2422 17.3711 37.0078 17.4297 36.8516 17.4844C36.5859 17.5781 36.4062 17.7344 36.3125 17.9531C36.2266 18.1719 36.1836 18.4102 36.1836 18.668V30.6562C36.1836 30.9297 36.2266 31.1602 36.3125 31.3477C36.4062 31.5352 36.5859 31.6992 36.8516 31.8398C36.9844 31.9102 37.2188 31.9805 37.5547 32.0508C37.8984 32.1211 38.168 32.1602 38.3633 32.168V33Z"/>
</mask>
<path d="M38.3633 33H31.4609V32.168C31.6484 32.1523 31.918 32.1289 32.2695 32.0977C32.6289 32.0664 32.875 32.0195 33.0078 31.957C33.2422 31.8633 33.4141 31.7227 33.5234 31.5352C33.6328 31.3398 33.6875 31.0898 33.6875 30.7852V24.8672H25.8711V30.6562C25.8711 30.9297 25.9141 31.1602 26 31.3477C26.0938 31.5352 26.2734 31.6992 26.5391 31.8398C26.6719 31.9102 26.9062 31.9805 27.2422 32.0508C27.5859 32.1211 27.8555 32.1602 28.0508 32.168V33H21.1484V32.168C21.3359 32.1523 21.6055 32.1289 21.957 32.0977C22.3164 32.0664 22.5625 32.0195 22.6953 31.957C22.9297 31.8633 23.1016 31.7227 23.2109 31.5352C23.3203 31.3398 23.375 31.0898 23.375 30.7852V18.7852C23.375 18.5352 23.3242 18.3086 23.2227 18.1055C23.1211 17.8945 22.9453 17.7305 22.6953 17.6133C22.4844 17.5117 22.2266 17.4219 21.9219 17.3438C21.625 17.2656 21.3672 17.2188 21.1484 17.2031V16.3711H28.0508V17.2031C27.832 17.2109 27.5625 17.2461 27.2422 17.3086C26.9297 17.3711 26.6953 17.4297 26.5391 17.4844C26.2734 17.5781 26.0938 17.7344 26 17.9531C25.9141 18.1719 25.8711 18.4102 25.8711 18.668V23.8242H33.6875V18.7852C33.6875 18.5352 33.6367 18.3086 33.5352 18.1055C33.4336 17.8945 33.2578 17.7305 33.0078 17.6133C32.7969 17.5117 32.5391 17.4219 32.2344 17.3438C31.9375 17.2656 31.6797 17.2188 31.4609 17.2031V16.3711H38.3633V17.2031C38.1445 17.2109 37.875 17.2461 37.5547 17.3086C37.2422 17.3711 37.0078 17.4297 36.8516 17.4844C36.5859 17.5781 36.4062 17.7344 36.3125 17.9531C36.2266 18.1719 36.1836 18.4102 36.1836 18.668V30.6562C36.1836 30.9297 36.2266 31.1602 36.3125 31.3477C36.4062 31.5352 36.5859 31.6992 36.8516 31.8398C36.9844 31.9102 37.2188 31.9805 37.5547 32.0508C37.8984 32.1211 38.168 32.1602 38.3633 32.168V33Z" fill="white"/>
<path d="M38.3633 33V33.1H38.4633V33H38.3633ZM31.4609 33H31.3609V33.1H31.4609V33ZM31.4609 32.168L31.4526 32.0683L31.3609 32.076V32.168H31.4609ZM32.2695 32.0977L32.2609 31.998L32.2607 31.998L32.2695 32.0977ZM33.0078 31.957L32.9706 31.864L32.9652 31.8665L33.0078 31.957ZM33.5234 31.5352L33.6098 31.5856L33.6107 31.584L33.5234 31.5352ZM33.6875 24.8672H33.7875V24.7672H33.6875V24.8672ZM25.8711 24.8672V24.7672H25.7711V24.8672H25.8711ZM26 31.3477L25.909 31.3893L25.9106 31.3924L26 31.3477ZM27.2422 32.0508L27.2217 32.1487L27.2221 32.1488L27.2422 32.0508ZM28.0508 32.168H28.1508V32.0719L28.0548 32.068L28.0508 32.168ZM28.0508 33V33.1H28.1508V33H28.0508ZM21.1484 33H21.0484V33.1H21.1484V33ZM21.1484 32.168L21.1401 32.0683L21.0484 32.076V32.168H21.1484ZM21.957 32.0977L21.9484 31.998L21.9482 31.998L21.957 32.0977ZM22.6953 31.957L22.6581 31.864L22.6527 31.8665L22.6953 31.957ZM23.2109 31.5352L23.2973 31.5856L23.2982 31.584L23.2109 31.5352ZM23.2227 18.1055L23.1325 18.1489L23.1332 18.1502L23.2227 18.1055ZM22.6953 17.6133L22.6519 17.7034L22.6529 17.7038L22.6953 17.6133ZM21.9219 17.3438L21.8964 17.4405L21.897 17.4406L21.9219 17.3438ZM21.1484 17.2031H21.0484V17.2962L21.1413 17.3029L21.1484 17.2031ZM21.1484 16.3711V16.2711H21.0484V16.3711H21.1484ZM28.0508 16.3711H28.1508V16.2711H28.0508V16.3711ZM28.0508 17.2031L28.0544 17.3031L28.1508 17.2996V17.2031H28.0508ZM27.2422 17.3086L27.223 17.2104L27.2226 17.2105L27.2422 17.3086ZM26.5391 17.4844L26.506 17.39L26.5058 17.3901L26.5391 17.4844ZM26 17.9531L25.908 17.9137L25.9069 17.9166L26 17.9531ZM25.8711 23.8242H25.7711V23.9242H25.8711V23.8242ZM33.6875 23.8242V23.9242H33.7875V23.8242H33.6875ZM33.5352 18.1055L33.445 18.1489L33.4457 18.1502L33.5352 18.1055ZM33.0078 17.6133L32.9644 17.7034L32.9654 17.7038L33.0078 17.6133ZM32.2344 17.3438L32.2089 17.4405L32.2095 17.4406L32.2344 17.3438ZM31.4609 17.2031H31.3609V17.2962L31.4538 17.3029L31.4609 17.2031ZM31.4609 16.3711V16.2711H31.3609V16.3711H31.4609ZM38.3633 16.3711H38.4633V16.2711H38.3633V16.3711ZM38.3633 17.2031L38.3668 17.3031L38.4633 17.2996V17.2031H38.3633ZM37.5547 17.3086L37.5355 17.2104L37.5351 17.2105L37.5547 17.3086ZM36.8516 17.4844L36.8185 17.39L36.8183 17.3901L36.8516 17.4844ZM36.3125 17.9531L36.2205 17.9137L36.2194 17.9166L36.3125 17.9531ZM36.3125 31.3477L36.2215 31.3893L36.2231 31.3924L36.3125 31.3477ZM37.5547 32.0508L37.5342 32.1487L37.5346 32.1488L37.5547 32.0508ZM38.3633 32.168H38.4633V32.0719L38.3673 32.068L38.3633 32.168ZM38.3633 33V32.9H31.4609V33V33.1H38.3633V33ZM31.4609 33H31.5609V32.168H31.4609H31.3609V33H31.4609ZM31.4609 32.168L31.4692 32.2676C31.657 32.252 31.9268 32.2285 32.2784 32.1973L32.2695 32.0977L32.2607 31.998C31.9092 32.0293 31.6399 32.0527 31.4526 32.0683L31.4609 32.168ZM32.2695 32.0977L32.2782 32.1973C32.6371 32.1661 32.8996 32.1185 33.0504 32.0475L33.0078 31.957L32.9652 31.8665C32.8504 31.9206 32.6207 31.9667 32.2609 31.998L32.2695 32.0977ZM33.0078 31.957L33.045 32.0499C33.2965 31.9493 33.4874 31.7953 33.6098 31.5855L33.5234 31.5352L33.4371 31.4848C33.3407 31.65 33.1879 31.7773 32.9707 31.8642L33.0078 31.957ZM33.5234 31.5352L33.6107 31.584C33.7309 31.3693 33.7875 31.101 33.7875 30.7852H33.6875H33.5875C33.5875 31.0786 33.5347 31.3103 33.4362 31.4863L33.5234 31.5352ZM33.6875 30.7852H33.7875V24.8672H33.6875H33.5875V30.7852H33.6875ZM33.6875 24.8672V24.7672H25.8711V24.8672V24.9672H33.6875V24.8672ZM25.8711 24.8672H25.7711V30.6562H25.8711H25.9711V24.8672H25.8711ZM25.8711 30.6562H25.7711C25.7711 30.9396 25.8155 31.1852 25.9091 31.3893L26 31.3477L26.0909 31.306C26.0126 31.1351 25.9711 30.9198 25.9711 30.6562H25.8711ZM26 31.3477L25.9106 31.3924C26.0169 31.605 26.2159 31.7819 26.4923 31.9282L26.5391 31.8398L26.5859 31.7515C26.331 31.6165 26.1706 31.4653 26.0894 31.3029L26 31.3477ZM26.5391 31.8398L26.4923 31.9282C26.6386 32.0057 26.8853 32.0782 27.2217 32.1487L27.2422 32.0508L27.2627 31.9529C26.9272 31.8827 26.7051 31.8146 26.5859 31.7515L26.5391 31.8398ZM27.2422 32.0508L27.2221 32.1488C27.5677 32.2194 27.8434 32.2598 28.0468 32.2679L28.0508 32.168L28.0548 32.068C27.8675 32.0606 27.6041 32.0227 27.2622 31.9528L27.2422 32.0508ZM28.0508 32.168H27.9508V33H28.0508H28.1508V32.168H28.0508ZM28.0508 33V32.9H21.1484V33V33.1H28.0508V33ZM21.1484 33H21.2484V32.168H21.1484H21.0484V33H21.1484ZM21.1484 32.168L21.1567 32.2676C21.3445 32.252 21.6143 32.2285 21.9659 32.1973L21.957 32.0977L21.9482 31.998C21.5967 32.0293 21.3274 32.0527 21.1401 32.0683L21.1484 32.168ZM21.957 32.0977L21.9657 32.1973C22.3246 32.1661 22.5871 32.1185 22.7379 32.0475L22.6953 31.957L22.6527 31.8665C22.5379 31.9206 22.3082 31.9667 21.9484 31.998L21.957 32.0977ZM22.6953 31.957L22.7325 32.0499C22.984 31.9493 23.1749 31.7953 23.2973 31.5855L23.2109 31.5352L23.1246 31.4848C23.0282 31.65 22.8754 31.7773 22.6582 31.8642L22.6953 31.957ZM23.2109 31.5352L23.2982 31.584C23.4184 31.3693 23.475 31.101 23.475 30.7852H23.375H23.275C23.275 31.0786 23.2222 31.3103 23.1237 31.4863L23.2109 31.5352ZM23.375 30.7852H23.475V18.7852H23.375H23.275V30.7852H23.375ZM23.375 18.7852H23.475C23.475 18.5212 23.4213 18.2791 23.3121 18.0607L23.2227 18.1055L23.1332 18.1502C23.2272 18.3381 23.275 18.5491 23.275 18.7852H23.375ZM23.2227 18.1055L23.3128 18.0621C23.1995 17.8268 23.0047 17.6479 22.7378 17.5227L22.6953 17.6133L22.6529 17.7038C22.8859 17.8131 23.0427 17.9622 23.1326 18.1489L23.2227 18.1055ZM22.6953 17.6133L22.7387 17.5232C22.5202 17.418 22.2558 17.3261 21.9467 17.2469L21.9219 17.3438L21.897 17.4406C22.1974 17.5176 22.4486 17.6055 22.6519 17.7034L22.6953 17.6133ZM21.9219 17.3438L21.9473 17.247C21.6466 17.1679 21.3824 17.1196 21.1556 17.1034L21.1484 17.2031L21.1413 17.3029C21.352 17.3179 21.6034 17.3633 21.8964 17.4405L21.9219 17.3438ZM21.1484 17.2031H21.2484V16.3711H21.1484H21.0484V17.2031H21.1484ZM21.1484 16.3711V16.4711H28.0508V16.3711V16.2711H21.1484V16.3711ZM28.0508 16.3711H27.9508V17.2031H28.0508H28.1508V16.3711H28.0508ZM28.0508 17.2031L28.0472 17.1032C27.8214 17.1113 27.5463 17.1474 27.223 17.2104L27.2422 17.3086L27.2613 17.4067C27.5787 17.3448 27.8427 17.3106 28.0544 17.3031L28.0508 17.2031ZM27.2422 17.3086L27.2226 17.2105C26.9089 17.2733 26.669 17.3329 26.506 17.39L26.5391 17.4844L26.5721 17.5788C26.7216 17.5264 26.9505 17.4689 27.2618 17.4067L27.2422 17.3086ZM26.5391 17.4844L26.5058 17.3901C26.2191 17.4913 26.0149 17.6646 25.9081 17.9137L26 17.9531L26.0919 17.9925C26.1726 17.8042 26.3278 17.665 26.5723 17.5787L26.5391 17.4844ZM26 17.9531L25.9069 17.9166C25.816 18.148 25.7711 18.3989 25.7711 18.668H25.8711H25.9711C25.9711 18.4215 26.0121 18.1957 26.0931 17.9897L26 17.9531ZM25.8711 18.668H25.7711V23.8242H25.8711H25.9711V18.668H25.8711ZM25.8711 23.8242V23.9242H33.6875V23.8242V23.7242H25.8711V23.8242ZM33.6875 23.8242H33.7875V18.7852H33.6875H33.5875V23.8242H33.6875ZM33.6875 18.7852H33.7875C33.7875 18.5212 33.7338 18.2791 33.6246 18.0607L33.5352 18.1055L33.4457 18.1502C33.5397 18.3381 33.5875 18.5491 33.5875 18.7852H33.6875ZM33.5352 18.1055L33.6253 18.0621C33.512 17.8268 33.3172 17.6479 33.0503 17.5227L33.0078 17.6133L32.9654 17.7038C33.1984 17.8131 33.3552 17.9622 33.4451 18.1489L33.5352 18.1055ZM33.0078 17.6133L33.0512 17.5232C32.8327 17.418 32.5683 17.3261 32.2592 17.2469L32.2344 17.3438L32.2095 17.4406C32.5099 17.5176 32.7611 17.6055 32.9644 17.7034L33.0078 17.6133ZM32.2344 17.3438L32.2598 17.247C31.9591 17.1679 31.6949 17.1196 31.4681 17.1034L31.4609 17.2031L31.4538 17.3029C31.6645 17.3179 31.9159 17.3633 32.2089 17.4405L32.2344 17.3438ZM31.4609 17.2031H31.5609V16.3711H31.4609H31.3609V17.2031H31.4609ZM31.4609 16.3711V16.4711H38.3633V16.3711V16.2711H31.4609V16.3711ZM38.3633 16.3711H38.2633V17.2031H38.3633H38.4633V16.3711H38.3633ZM38.3633 17.2031L38.3597 17.1032C38.1339 17.1113 37.8588 17.1474 37.5355 17.2104L37.5547 17.3086L37.5738 17.4067C37.8912 17.3448 38.1552 17.3106 38.3668 17.3031L38.3633 17.2031ZM37.5547 17.3086L37.5351 17.2105C37.2214 17.2733 36.9815 17.3329 36.8185 17.39L36.8516 17.4844L36.8846 17.5788C37.0341 17.5264 37.263 17.4689 37.5743 17.4067L37.5547 17.3086ZM36.8516 17.4844L36.8183 17.3901C36.5316 17.4913 36.3274 17.6646 36.2206 17.9137L36.3125 17.9531L36.4044 17.9925C36.4851 17.8042 36.6403 17.665 36.8848 17.5787L36.8516 17.4844ZM36.3125 17.9531L36.2194 17.9166C36.1285 18.148 36.0836 18.3989 36.0836 18.668H36.1836H36.2836C36.2836 18.4215 36.3246 18.1957 36.4056 17.9897L36.3125 17.9531ZM36.1836 18.668H36.0836V30.6562H36.1836H36.2836V18.668H36.1836ZM36.1836 30.6562H36.0836C36.0836 30.9396 36.128 31.1852 36.2216 31.3893L36.3125 31.3477L36.4034 31.306C36.3251 31.1351 36.2836 30.9198 36.2836 30.6562H36.1836ZM36.3125 31.3477L36.2231 31.3924C36.3294 31.605 36.5284 31.7819 36.8048 31.9282L36.8516 31.8398L36.8984 31.7515C36.6435 31.6165 36.4831 31.4653 36.4019 31.3029L36.3125 31.3477ZM36.8516 31.8398L36.8048 31.9282C36.9511 32.0057 37.1978 32.0782 37.5342 32.1487L37.5547 32.0508L37.5752 31.9529C37.2397 31.8827 37.0176 31.8146 36.8984 31.7515L36.8516 31.8398ZM37.5547 32.0508L37.5346 32.1488C37.8802 32.2194 38.1559 32.2598 38.3593 32.2679L38.3633 32.168L38.3673 32.068C38.18 32.0606 37.9166 32.0227 37.5747 31.9528L37.5547 32.0508ZM38.3633 32.168H38.2633V33H38.3633H38.4633V32.168H38.3633Z" fill="black" mask="url(#path-3-outside-2_263_1767)"/>
<circle cx="42" cy="31" r="1.95" fill="#F5B731" stroke="black" stroke-width="0.1"/>
</svg>
